<svg width="40" height="40" viewBox="0 0 40 40" fill="none" xmlns="http://www.w3.org/2000/svg">
<path d="M22.83 20.0007L35.4136 7.41707C36.1954 6.63593 36.1954 5.3685 35.4136 4.58736C34.6318 3.80556 33.3657 3.80556 32.5839 4.58736L20.0003 17.171L7.41606 4.58736C6.63426 3.80556 5.36816 3.80556 4.58635 4.58736C3.80455 5.3685 3.80455 6.63593 4.58635 7.41707L17.1706 20.0007L4.58635 32.5843C3.80455 33.3654 3.80455 34.6328 4.58635 35.414C4.97726 35.8042 5.48957 35.9997 6.00121 35.9997C6.51285 35.9997 7.02516 35.8042 7.41606 35.4133L20.0003 22.8297L32.5839 35.4133C32.9748 35.8042 33.4871 35.9997 33.9988 35.9997C34.5104 35.9997 35.0227 35.8042 35.4136 35.4133C36.1954 34.6322 36.1954 33.3647 35.4136 32.5836L22.83 20.0007Z" fill="#AE3434"/>
</svg>
