<svg width="41" height="41" viewBox="0 0 41 41" fill="none" xmlns="http://www.w3.org/2000/svg">
<g clip-path="url(#clip0)">
<path d="M20.2307 40.3842C16.7845 40.3842 13.9807 37.5804 13.9807 34.1342V21.6342C13.9807 18.1879 16.7845 15.3842 20.2307 15.3842C23.677 15.3842 26.4807 18.1879 26.4807 21.6342V34.1342C26.4807 37.5804 23.677 40.3842 20.2307 40.3842ZM20.2307 17.8842C18.163 17.8842 16.4807 19.5664 16.4807 21.6342V34.1342C16.4807 36.2019 18.163 37.8842 20.2307 37.8842C22.2985 37.8842 23.9807 36.2019 23.9807 34.1342V21.6342C23.9807 19.5664 22.2985 17.8842 20.2307 17.8842Z" fill="#FFB943"/>
<path d="M20.2307 12.8842C16.7845 12.8842 13.9807 10.0804 13.9807 6.63416C13.9807 3.18791 16.7845 0.384155 20.2307 0.384155C23.677 0.384155 26.4807 3.18791 26.4807 6.63416C26.4807 10.0804 23.677 12.8842 20.2307 12.8842ZM20.2307 2.88416C18.163 2.88416 16.4807 4.56642 16.4807 6.63416C16.4807 8.70189 18.163 10.3842 20.2307 10.3842C22.2984 10.3842 23.9807 8.70189 23.9807 6.63416C23.9807 4.56642 22.2984 2.88416 20.2307 2.88416Z" fill="#FFB943"/>
</g>
<defs>
<clipPath id="clip0">
<rect width="40" height="40" fill="white" transform="translate(0.230713 0.384155)"/>
</clipPath>
</defs>
</svg>
